<mxfile host="app.diagrams.net" modified="2021-05-26T09:44:40.263Z" agent="5.0 (Macintosh; Intel Mac OS X 10_15_6) AppleWebKit/537.36 (KHTML, like Gecko) Chrome/90.0.4430.212 Safari/537.36" etag="03U-OYwKtsQIZ2PFPPy_" version="14.7.1" type="github">
  <diagram id="hDwlBtDCY1pN-pmzz8m0" name="Page-1">
    <mxGraphModel dx="1426" dy="803" grid="1" gridSize="10" guides="1" tooltips="1" connect="1" arrows="1" fold="1" page="1" pageScale="1" pageWidth="827" pageHeight="1169" math="0" shadow="0">
      <root>
        <mxCell id="0" />
        <mxCell id="1" parent="0" />
        <mxCell id="NCJUO7-m-FvL0gRSml1r-1" value="" style="rounded=0;whiteSpace=wrap;html=1;" parent="1" vertex="1">
          <mxGeometry x="10" y="60" width="120" height="860" as="geometry" />
        </mxCell>
        <mxCell id="NCJUO7-m-FvL0gRSml1r-2" value="" style="rounded=0;whiteSpace=wrap;html=1;" parent="1" vertex="1">
          <mxGeometry x="131" y="40" width="120" height="880" as="geometry" />
        </mxCell>
        <mxCell id="NCJUO7-m-FvL0gRSml1r-3" value="" style="rounded=0;whiteSpace=wrap;html=1;" parent="1" vertex="1">
          <mxGeometry x="251" y="40" width="120" height="880" as="geometry" />
        </mxCell>
        <mxCell id="NCJUO7-m-FvL0gRSml1r-6" value="用户" style="rounded=0;whiteSpace=wrap;html=1;fillColor=#d5e8d4;strokeColor=#82b366;" parent="1" vertex="1">
          <mxGeometry x="10" y="40" width="120" height="40" as="geometry" />
        </mxCell>
        <mxCell id="NCJUO7-m-FvL0gRSml1r-7" value="抖音服务器" style="rounded=0;whiteSpace=wrap;html=1;fillColor=#d5e8d4;strokeColor=#82b366;" parent="1" vertex="1">
          <mxGeometry x="131" y="40" width="120" height="40" as="geometry" />
        </mxCell>
        <mxCell id="NCJUO7-m-FvL0gRSml1r-8" value="WECHAT服务" style="rounded=0;whiteSpace=wrap;html=1;fillColor=#d5e8d4;strokeColor=#82b366;" parent="1" vertex="1">
          <mxGeometry x="251" y="40" width="120" height="40" as="geometry" />
        </mxCell>
        <mxCell id="NCJUO7-m-FvL0gRSml1r-9" value="" style="rounded=0;whiteSpace=wrap;html=1;" parent="1" vertex="1">
          <mxGeometry x="371" y="40" width="120" height="880" as="geometry" />
        </mxCell>
        <mxCell id="NCJUO7-m-FvL0gRSml1r-10" value="CRM后台" style="rounded=0;whiteSpace=wrap;html=1;fillColor=#d5e8d4;strokeColor=#82b366;" parent="1" vertex="1">
          <mxGeometry x="371" y="40" width="120" height="40" as="geometry" />
        </mxCell>
        <mxCell id="NCJUO7-m-FvL0gRSml1r-13" value="" style="rounded=0;whiteSpace=wrap;html=1;" parent="1" vertex="1">
          <mxGeometry x="491" y="40" width="120" height="880" as="geometry" />
        </mxCell>
        <mxCell id="NCJUO7-m-FvL0gRSml1r-14" value="IM服务" style="rounded=0;whiteSpace=wrap;html=1;fillColor=#d5e8d4;strokeColor=#82b366;" parent="1" vertex="1">
          <mxGeometry x="491" y="40" width="120" height="40" as="geometry" />
        </mxCell>
        <mxCell id="NCJUO7-m-FvL0gRSml1r-15" value="" style="rounded=0;whiteSpace=wrap;html=1;" parent="1" vertex="1">
          <mxGeometry x="611" y="40" width="120" height="880" as="geometry" />
        </mxCell>
        <mxCell id="NCJUO7-m-FvL0gRSml1r-18" value="USER服务" style="rounded=0;whiteSpace=wrap;html=1;fillColor=#d5e8d4;strokeColor=#82b366;" parent="1" vertex="1">
          <mxGeometry x="611" y="40" width="120" height="40" as="geometry" />
        </mxCell>
        <mxCell id="NCJUO7-m-FvL0gRSml1r-32" value="推送" style="edgeStyle=none;rounded=0;orthogonalLoop=1;jettySize=auto;html=1;exitX=0.5;exitY=1;exitDx=0;exitDy=0;entryX=0;entryY=0.5;entryDx=0;entryDy=0;" parent="1" source="NCJUO7-m-FvL0gRSml1r-20" target="NCJUO7-m-FvL0gRSml1r-31" edge="1">
          <mxGeometry relative="1" as="geometry">
            <Array as="points">
              <mxPoint x="191" y="310" />
            </Array>
          </mxGeometry>
        </mxCell>
        <mxCell id="NCJUO7-m-FvL0gRSml1r-20" value="接收客户消息" style="rounded=0;whiteSpace=wrap;html=1;fillColor=#fff2cc;strokeColor=#d6b656;" parent="1" vertex="1">
          <mxGeometry x="146" y="250" width="90" height="40" as="geometry" />
        </mxCell>
        <mxCell id="NCJUO7-m-FvL0gRSml1r-24" style="edgeStyle=none;rounded=0;orthogonalLoop=1;jettySize=auto;html=1;entryX=0.5;entryY=1;entryDx=0;entryDy=0;" parent="1" edge="1">
          <mxGeometry relative="1" as="geometry">
            <mxPoint x="71" y="210" as="sourcePoint" />
            <mxPoint x="71" y="210" as="targetPoint" />
          </mxGeometry>
        </mxCell>
        <mxCell id="NCJUO7-m-FvL0gRSml1r-28" value="" style="edgeStyle=none;rounded=0;orthogonalLoop=1;jettySize=auto;html=1;" parent="1" source="NCJUO7-m-FvL0gRSml1r-25" target="NCJUO7-m-FvL0gRSml1r-27" edge="1">
          <mxGeometry relative="1" as="geometry">
            <Array as="points">
              <mxPoint x="71" y="190" />
            </Array>
          </mxGeometry>
        </mxCell>
        <mxCell id="NCJUO7-m-FvL0gRSml1r-25" value="" style="shape=umlActor;verticalLabelPosition=bottom;verticalAlign=top;html=1;outlineConnect=0;fillColor=#f5f5f5;strokeColor=#666666;fontColor=#333333;" parent="1" vertex="1">
          <mxGeometry x="56" y="100" width="30" height="50" as="geometry" />
        </mxCell>
        <mxCell id="NCJUO7-m-FvL0gRSml1r-29" style="edgeStyle=none;rounded=0;orthogonalLoop=1;jettySize=auto;html=1;entryX=0;entryY=0.5;entryDx=0;entryDy=0;" parent="1" source="NCJUO7-m-FvL0gRSml1r-27" target="NCJUO7-m-FvL0gRSml1r-20" edge="1">
          <mxGeometry relative="1" as="geometry">
            <Array as="points">
              <mxPoint x="71" y="270" />
            </Array>
          </mxGeometry>
        </mxCell>
        <mxCell id="NCJUO7-m-FvL0gRSml1r-30" value="发送" style="edgeLabel;html=1;align=center;verticalAlign=middle;resizable=0;points=[];" parent="NCJUO7-m-FvL0gRSml1r-29" vertex="1" connectable="0">
          <mxGeometry x="0.1789" y="-1" relative="1" as="geometry">
            <mxPoint as="offset" />
          </mxGeometry>
        </mxCell>
        <mxCell id="NCJUO7-m-FvL0gRSml1r-27" value="&lt;span&gt;进入企业号留言&lt;/span&gt;" style="ellipse;whiteSpace=wrap;html=1;fillColor=#fff2cc;strokeColor=#d6b656;" parent="1" vertex="1">
          <mxGeometry x="36" y="190" width="70" height="60" as="geometry" />
        </mxCell>
        <mxCell id="Sdlp5T6TtWP1QdONSsh7-2" style="edgeStyle=none;rounded=0;orthogonalLoop=1;jettySize=auto;html=1;entryX=0;entryY=0.5;entryDx=0;entryDy=0;" edge="1" parent="1" source="NCJUO7-m-FvL0gRSml1r-31" target="Sdlp5T6TtWP1QdONSsh7-1">
          <mxGeometry relative="1" as="geometry">
            <Array as="points">
              <mxPoint x="311" y="350" />
            </Array>
          </mxGeometry>
        </mxCell>
        <mxCell id="Sdlp5T6TtWP1QdONSsh7-3" value="转发推送" style="edgeLabel;html=1;align=center;verticalAlign=middle;resizable=0;points=[];" vertex="1" connectable="0" parent="Sdlp5T6TtWP1QdONSsh7-2">
          <mxGeometry x="-0.1158" relative="1" as="geometry">
            <mxPoint as="offset" />
          </mxGeometry>
        </mxCell>
        <mxCell id="NCJUO7-m-FvL0gRSml1r-31" value="接收抖音服务器消息" style="rounded=0;whiteSpace=wrap;html=1;fillColor=#fff2cc;strokeColor=#d6b656;" parent="1" vertex="1">
          <mxGeometry x="266" y="290" width="90" height="40" as="geometry" />
        </mxCell>
        <mxCell id="Sdlp5T6TtWP1QdONSsh7-27" style="edgeStyle=none;rounded=0;orthogonalLoop=1;jettySize=auto;html=1;" edge="1" parent="1" source="Sdlp5T6TtWP1QdONSsh7-1" target="Sdlp5T6TtWP1QdONSsh7-26">
          <mxGeometry relative="1" as="geometry" />
        </mxCell>
        <mxCell id="Sdlp5T6TtWP1QdONSsh7-1" value="接收WECHAT服务器消息" style="rounded=0;whiteSpace=wrap;html=1;fillColor=#fff2cc;strokeColor=#d6b656;" vertex="1" parent="1">
          <mxGeometry x="386" y="330" width="90" height="40" as="geometry" />
        </mxCell>
        <mxCell id="Sdlp5T6TtWP1QdONSsh7-23" style="edgeStyle=none;rounded=0;orthogonalLoop=1;jettySize=auto;html=1;exitX=1;exitY=1;exitDx=0;exitDy=0;" edge="1" parent="1">
          <mxGeometry relative="1" as="geometry">
            <mxPoint x="421" y="900" as="sourcePoint" />
            <mxPoint x="421" y="900" as="targetPoint" />
          </mxGeometry>
        </mxCell>
        <mxCell id="Sdlp5T6TtWP1QdONSsh7-37" value="数据推送" style="edgeStyle=none;rounded=0;orthogonalLoop=1;jettySize=auto;html=1;entryX=1;entryY=0.75;entryDx=0;entryDy=0;exitX=0.5;exitY=1;exitDx=0;exitDy=0;" edge="1" parent="1" source="Sdlp5T6TtWP1QdONSsh7-25" target="Sdlp5T6TtWP1QdONSsh7-36">
          <mxGeometry relative="1" as="geometry">
            <Array as="points">
              <mxPoint x="431" y="680" />
            </Array>
          </mxGeometry>
        </mxCell>
        <mxCell id="Sdlp5T6TtWP1QdONSsh7-25" value="" style="whiteSpace=wrap;html=1;fillColor=#fff2cc;strokeColor=#d6b656;" vertex="1" parent="1">
          <mxGeometry x="381" y="460" width="100" height="190" as="geometry" />
        </mxCell>
        <mxCell id="Sdlp5T6TtWP1QdONSsh7-28" style="edgeStyle=none;rounded=0;orthogonalLoop=1;jettySize=auto;html=1;" edge="1" parent="1" source="Sdlp5T6TtWP1QdONSsh7-26" target="Sdlp5T6TtWP1QdONSsh7-25">
          <mxGeometry relative="1" as="geometry" />
        </mxCell>
        <mxCell id="Sdlp5T6TtWP1QdONSsh7-26" value="推送到数据队列" style="rounded=1;whiteSpace=wrap;html=1;fillColor=#f8cecc;strokeColor=#b85450;" vertex="1" parent="1">
          <mxGeometry x="386" y="390" width="90" height="40" as="geometry" />
        </mxCell>
        <mxCell id="Sdlp5T6TtWP1QdONSsh7-29" value="统一&lt;br&gt;流程" style="text;html=1;strokeColor=none;fillColor=none;align=center;verticalAlign=middle;whiteSpace=wrap;rounded=0;" vertex="1" parent="1">
          <mxGeometry x="386" y="470" width="40" height="20" as="geometry" />
        </mxCell>
        <mxCell id="Sdlp5T6TtWP1QdONSsh7-30" value="抖音用户数据" style="shape=cylinder3;whiteSpace=wrap;html=1;boundedLbl=1;backgroundOutline=1;size=15;rotation=-90;fillColor=#dae8fc;strokeColor=#6c8ebf;" vertex="1" parent="1">
          <mxGeometry x="401" y="505" width="60" height="80" as="geometry" />
        </mxCell>
        <mxCell id="Sdlp5T6TtWP1QdONSsh7-31" value="数据推送至IM服务" style="rounded=1;whiteSpace=wrap;html=1;fillColor=#f8cecc;strokeColor=#b85450;" vertex="1" parent="1">
          <mxGeometry x="388.5" y="600" width="85" height="40" as="geometry" />
        </mxCell>
        <mxCell id="Sdlp5T6TtWP1QdONSsh7-33" value="IM服务层业务" style="rounded=0;whiteSpace=wrap;html=1;fillColor=#ffe6cc;strokeColor=#d79b00;" vertex="1" parent="1">
          <mxGeometry x="506" y="590" width="90" height="60" as="geometry" />
        </mxCell>
        <mxCell id="Sdlp5T6TtWP1QdONSsh7-44" value="数据推送" style="edgeStyle=none;rounded=0;orthogonalLoop=1;jettySize=auto;html=1;entryX=1;entryY=0.5;entryDx=0;entryDy=0;exitX=0.5;exitY=1;exitDx=0;exitDy=0;" edge="1" parent="1" source="Sdlp5T6TtWP1QdONSsh7-36" target="Sdlp5T6TtWP1QdONSsh7-40">
          <mxGeometry relative="1" as="geometry">
            <Array as="points">
              <mxPoint x="311" y="710" />
            </Array>
          </mxGeometry>
        </mxCell>
        <mxCell id="Sdlp5T6TtWP1QdONSsh7-36" value="接受CRM数据" style="rounded=0;whiteSpace=wrap;html=1;fillColor=#fff2cc;strokeColor=#d6b656;" vertex="1" parent="1">
          <mxGeometry x="266" y="650" width="90" height="40" as="geometry" />
        </mxCell>
        <mxCell id="Sdlp5T6TtWP1QdONSsh7-47" style="edgeStyle=none;rounded=0;orthogonalLoop=1;jettySize=auto;html=1;entryX=1;entryY=0.5;entryDx=0;entryDy=0;exitX=0.5;exitY=1;exitDx=0;exitDy=0;" edge="1" parent="1" source="Sdlp5T6TtWP1QdONSsh7-40" target="Sdlp5T6TtWP1QdONSsh7-43">
          <mxGeometry relative="1" as="geometry">
            <Array as="points">
              <mxPoint x="191" y="750" />
            </Array>
          </mxGeometry>
        </mxCell>
        <mxCell id="Sdlp5T6TtWP1QdONSsh7-48" value="数据推送" style="edgeLabel;html=1;align=center;verticalAlign=middle;resizable=0;points=[];" vertex="1" connectable="0" parent="Sdlp5T6TtWP1QdONSsh7-47">
          <mxGeometry x="-0.0105" relative="1" as="geometry">
            <mxPoint as="offset" />
          </mxGeometry>
        </mxCell>
        <mxCell id="Sdlp5T6TtWP1QdONSsh7-40" value="接受销售发送的消息" style="rounded=0;whiteSpace=wrap;html=1;fillColor=#fff2cc;strokeColor=#d6b656;" vertex="1" parent="1">
          <mxGeometry x="146" y="690" width="90" height="40" as="geometry" />
        </mxCell>
        <mxCell id="Sdlp5T6TtWP1QdONSsh7-46" style="edgeStyle=none;rounded=0;orthogonalLoop=1;jettySize=auto;html=1;" edge="1" parent="1" source="Sdlp5T6TtWP1QdONSsh7-43" target="Sdlp5T6TtWP1QdONSsh7-45">
          <mxGeometry relative="1" as="geometry" />
        </mxCell>
        <mxCell id="Sdlp5T6TtWP1QdONSsh7-43" value="接受销售发送的消息" style="rounded=0;whiteSpace=wrap;html=1;fillColor=#fff2cc;strokeColor=#d6b656;" vertex="1" parent="1">
          <mxGeometry x="26" y="730" width="90" height="40" as="geometry" />
        </mxCell>
        <mxCell id="Sdlp5T6TtWP1QdONSsh7-45" value="结束" style="ellipse;whiteSpace=wrap;html=1;aspect=fixed;fillColor=#f5f5f5;strokeColor=#666666;fontColor=#333333;" vertex="1" parent="1">
          <mxGeometry x="45" y="800" width="50" height="50" as="geometry" />
        </mxCell>
        <mxCell id="Sdlp5T6TtWP1QdONSsh7-55" value="" style="endArrow=classic;startArrow=classic;html=1;exitX=1;exitY=0.5;exitDx=0;exitDy=0;entryX=0;entryY=0.5;entryDx=0;entryDy=0;" edge="1" parent="1" source="Sdlp5T6TtWP1QdONSsh7-31" target="Sdlp5T6TtWP1QdONSsh7-33">
          <mxGeometry width="50" height="50" relative="1" as="geometry">
            <mxPoint x="470" y="650" as="sourcePoint" />
            <mxPoint x="520" y="600" as="targetPoint" />
          </mxGeometry>
        </mxCell>
        <mxCell id="Sdlp5T6TtWP1QdONSsh7-56" value="&lt;span&gt;用户数据只有openid&lt;/span&gt;" style="shape=callout;whiteSpace=wrap;html=1;perimeter=calloutPerimeter;rotation=-15;gradientColor=#ffa500;fillColor=#ffcd28;strokeColor=#d79b00;direction=south;" vertex="1" parent="1">
          <mxGeometry x="476" y="337.17" width="87.07" height="116.5" as="geometry" />
        </mxCell>
        <mxCell id="Sdlp5T6TtWP1QdONSsh7-61" style="edgeStyle=none;rounded=0;orthogonalLoop=1;jettySize=auto;html=1;exitX=0;exitY=0.5;exitDx=0;exitDy=0;entryX=1;entryY=0.5;entryDx=0;entryDy=0;" edge="1" parent="1" source="Sdlp5T6TtWP1QdONSsh7-59" target="Sdlp5T6TtWP1QdONSsh7-60">
          <mxGeometry relative="1" as="geometry" />
        </mxCell>
        <mxCell id="Sdlp5T6TtWP1QdONSsh7-59" value="获取私信过我的用户" style="rounded=0;whiteSpace=wrap;html=1;fillColor=#fff2cc;strokeColor=#d6b656;" vertex="1" parent="1">
          <mxGeometry x="261.5" y="150" width="99" height="40" as="geometry" />
        </mxCell>
        <mxCell id="Sdlp5T6TtWP1QdONSsh7-60" value="获取意向用户接口" style="rounded=0;whiteSpace=wrap;html=1;fillColor=#fff2cc;strokeColor=#d6b656;" vertex="1" parent="1">
          <mxGeometry x="141.5" y="150" width="99" height="40" as="geometry" />
        </mxCell>
        <mxCell id="Sdlp5T6TtWP1QdONSsh7-65" value="调用" style="edgeStyle=none;rounded=0;orthogonalLoop=1;jettySize=auto;html=1;entryX=1;entryY=0.5;entryDx=0;entryDy=0;" edge="1" parent="1" target="Sdlp5T6TtWP1QdONSsh7-59">
          <mxGeometry relative="1" as="geometry">
            <mxPoint x="619" y="170" as="sourcePoint" />
          </mxGeometry>
        </mxCell>
        <mxCell id="Sdlp5T6TtWP1QdONSsh7-67" style="edgeStyle=none;rounded=0;orthogonalLoop=1;jettySize=auto;html=1;entryX=1;entryY=0.5;entryDx=0;entryDy=0;" edge="1" parent="1" source="Sdlp5T6TtWP1QdONSsh7-62" target="Sdlp5T6TtWP1QdONSsh7-25">
          <mxGeometry relative="1" as="geometry">
            <Array as="points">
              <mxPoint x="671" y="555" />
            </Array>
          </mxGeometry>
        </mxCell>
        <mxCell id="Sdlp5T6TtWP1QdONSsh7-68" value="同步用户信息&lt;br&gt;(头像,昵称,关注状态)" style="edgeLabel;html=1;align=center;verticalAlign=middle;resizable=0;points=[];" vertex="1" connectable="0" parent="Sdlp5T6TtWP1QdONSsh7-67">
          <mxGeometry x="0.2505" y="1" relative="1" as="geometry">
            <mxPoint x="-1" y="-127" as="offset" />
          </mxGeometry>
        </mxCell>
        <mxCell id="Sdlp5T6TtWP1QdONSsh7-62" value="轮询任务" style="whiteSpace=wrap;html=1;fillColor=#fff2cc;strokeColor=#d6b656;" vertex="1" parent="1">
          <mxGeometry x="620.5" y="150" width="101" height="40" as="geometry" />
        </mxCell>
      </root>
    </mxGraphModel>
  </diagram>
</mxfile>
